Coordinates
version=1
nRows=10
nColumns=63
inDegrees=yes

Units are S.I. units (second, meters, Newtons, ...)
If the header above contains a line with 'inDegrees', this indicates whether rotational values are in degrees (yes) or radians (no).

endheader
time	pelvis_tilt	pelvis_list	pelvis_rotation	pelvis_tx	pelvis_ty	pelvis_tz	hip_flexion_r	hip_adduction_r	hip_rotation_r	knee_angle_r	knee_angle_r_beta	ankle_angle_r	subtalar_angle_r	mtp_angle_r	hip_flexion_l	hip_adduction_l	hip_rotation_l	knee_angle_l	knee_angle_l_beta	ankle_angle_l	subtalar_angle_l	mtp_angle_l	L5_S1_Flex_Ext	L5_S1_Lat_Bending	L5_S1_axial_rotation	L4_L5_Flex_Ext	L4_L5_Lat_Bending	L4_L5_axial_rotation	L3_L4_Flex_Ext	L3_L4_Lat_Bending	L3_L4_axial_rotation	L2_L3_Flex_Ext	L2_L3_Lat_Bending	L2_L3_axial_rotation	L1_L2_Flex_Ext	L1_L2_Lat_Bending	L1_L2_axial_rotation	L1_T12_Flex_Ext	L1_T12_Lat_Bending	L1_T12_axial_rotation	Abs_r3	Abs_r2	Abs_r1	Abs_t1	Abs_t2	neck_flexion	neck_bending	neck_rotation	arm_flex_r	arm_add_r	arm_rot_r	elbow_flex_r	pro_sup_r	wrist_flex_r	wrist_dev_r	arm_flex_l	arm_add_l	arm_rot_l	elbow_flex_l	pro_sup_l	wrist_flex_l	wrist_dev_l
     16.06666667	      1.25752998	      1.75760107	    183.44820908	     -1.79962645	      0.86549265	      0.79478293	     10.52518876	     -8.68211024	    -10.83351994	     71.26363092	      1.24378500	     -5.86012184	    -17.47885747	      0.00000000	     17.38485808	      0.27614470	     -1.96841570	     23.98480282	      0.41861378	      6.61798776	    -15.24932408	      0.00000000	      0.00533072	     -0.03222203	     -0.94135438	      0.00989969	     -0.04285531	     -1.00018903	      0.00875785	     -0.07834466	     -1.00018903	      0.00609248	     -0.07834466	     -0.82368508	      0.00495011	     -0.06570717	     -0.76485043	      0.00304598	     -0.04991193	     -0.70601579	      0.03807683	     -0.36450210	     -5.23553066	      0.00000000	      0.00000000	     -0.00000000	      0.00000000	      0.00000000	      0.23359519	    -15.92420491	     35.71513814	     29.83929745	     39.14102711	      0.00000000	      5.00000014	    -12.76480448	    -10.13759272	      2.59426090	     29.04421654	     33.61582707	      0.00000000	      5.00000014
     16.10000000	      0.79979861	      2.22120111	    185.19246852	     -1.83183071	      0.86728206	      0.80211318	     15.09333965	     -9.61287506	    -11.81627750	     73.62133021	      1.28493461	     -3.05832833	    -17.60987385	      0.00000000	     14.55233795	      0.41732632	     -0.13647402	     23.14708928	      0.40399292	      7.91946298	    -13.55076016	      0.00000000	      0.00778722	      0.04636189	     -1.73808811	      0.01446165	      0.06166131	     -1.84671861	      0.01279363	      0.11272429	     -1.84671861	      0.00890002	      0.11272429	     -1.52082709	      0.00723122	      0.09454116	     -1.41219659	      0.00444962	      0.07181456	     -1.30356608	      0.05562336	      0.52445494	     -9.66672461	      0.00000000	      0.00000000	     -0.00000000	      0.00000000	      0.00000000	     -2.46074801	    -14.53358839	     29.53875995	     29.09385972	     38.80958755	      0.00000000	      5.00000014	    -11.35632640	     -9.09787577	     -2.59545625	     30.26834091	     33.78261169	      0.00000000	      5.00000014
     16.13333333	      0.56766940	      2.48229436	    187.08651055	     -1.86234008	      0.86878150	      0.80864536	     19.36799858	    -10.86447332	    -13.46645072	     73.13759820	      1.27649190	      1.46297857	    -16.66775652	      0.00000000	     11.69086757	      0.24692331	      0.22120209	     21.50121210	      0.37526694	      9.98857758	     -9.19032731	      0.00000000	      0.00890555	      0.09137931	     -2.34531917	      0.01653850	      0.12153448	     -2.49190162	      0.01463093	      0.22217965	     -2.49190162	      0.01017816	      0.22217965	     -2.05215427	      0.00826970	      0.18634069	     -1.90557183	      0.00508863	      0.14154655	     -1.75898938	      0.06361148	      1.03370103	    -13.04396163	      0.00000000	      0.00000000	     -0.00000000	      0.00000000	      0.00000000	     -6.00701530	    -13.37739670	     21.84293419	     29.47872236	     38.26356821	      0.00000000	      5.00000014	     -8.90175914	     -8.92079690	     -5.69137299	     30.87943683	     34.60468568	      0.00000000	      5.00000014
     16.16666667	      0.57787972	      2.51116734	    188.93699656	     -1.89128033	      0.86987645	      0.81426426	     22.79613406	    -12.28250522	    -15.74651938	     69.48991260	      1.21282777	      6.37249854	    -14.07682866	      0.00000000	      8.80416223	     -0.16386539	     -1.40035485	     19.24667996	      0.33591794	     12.52617457	     -2.49331179	      0.00000000	      0.01021120	      0.09701056	     -2.72632509	      0.01896321	      0.12902404	     -2.89672041	      0.01677598	      0.23587147	     -2.89672041	      0.01167038	      0.23587147	     -2.38553446	      0.00948212	      0.19782393	     -2.21513914	      0.00583468	      0.15026935	     -2.04474382	      0.07293756	      1.09740281	    -15.16300228	      0.00000000	      0.00000000	     -0.00000000	      0.00000000	      0.00000000	     -9.65545952	    -12.47711693	     15.11759672	     30.22565758	     37.75641836	      0.00000000	      5.00000014	     -5.58492974	     -9.66818365	     -5.85250253	     30.99996155	     36.02881683	      0.00000000	      5.00000014
     16.20000000	      0.81206591	      2.19250970	    190.31967452	     -1.91889209	      0.87039583	      0.81877768	     25.16738798	    -13.71186640	    -18.41503284	     63.02065455	      1.09991792	      9.82633223	     -9.99975125	      0.00000000	      5.73932088	      0.04218766	     -1.56344275	     16.34195214	      0.28522087	     14.03389387	      0.40114943	      0.00000000	      0.00904065	      0.05316466	     -2.89795443	      0.01678939	      0.07070900	     -3.07907658	      0.01485288	      0.12926456	     -3.07907658	      0.01033256	      0.12926456	     -2.53571013	      0.00839515	      0.10841338	     -2.35458798	      0.00516583	      0.08235206	     -2.17346582	      0.06457646	      0.60140931	    -16.11755316	      0.00000000	      0.00000000	     -0.00000000	      0.00000000	      0.00000000	    -12.34942733	    -12.49023023	     13.76840434	     30.42484912	     37.60272756	      0.00000000	      5.00000014	     -1.81374782	    -10.60946685	     -5.01546908	     30.87049463	     36.51267854	      0.00000000	      5.00000014
     16.23333333	      1.29859049	      1.44157783	    191.27989317	     -1.94599430	      0.86971915	      0.82068531	     26.53721017	    -14.90937374	    -21.47125236	     54.60599000	      0.95305432	     11.05179714	     -4.96939985	      0.00000000	      3.20116824	     -0.48500176	     -9.78652255	     14.56235497	      0.25416104	     17.12785426	     13.54859221	      0.00000000	      0.00853008	     -0.04620044	     -2.91381297	      0.01584121	     -0.06144659	     -3.09592628	      0.01401407	     -0.11233175	     -3.09592628	      0.00974903	     -0.11233175	     -2.54958635	      0.00792103	     -0.09421194	     -2.36747304	      0.00487409	     -0.07156448	     -2.18535973	      0.06092951	     -0.52262862	    -16.20575361	      0.00000000	      0.00000000	     -0.00000000	      0.00000000	      0.00000000	    -15.30118776	    -10.94626870	      7.28447317	     30.92444994	     36.74458922	      0.00000000	      5.00000014	      2.20738174	    -13.27127411	      2.49821694	     30.75147754	     40.13876879	      0.00000000	      5.00000014
     16.26666667	      1.95538776	      0.85407417	    191.65222874	     -1.97314253	      0.86799610	      0.82131181	     27.15492661	    -14.81934941	    -24.17000205	     44.86762958	      0.78308786	      9.54237039	     -0.26553479	      0.00000000	      1.09287442	     -0.08106465	    -10.28661272	     13.11668740	      0.22892938	     18.80874114	     14.55301458	      0.00000000	      0.00690042	     -0.11632741	     -2.92184366	      0.01281477	     -0.15471546	     -3.10445889	      0.01133670	     -0.28283847	     -3.10445889	      0.00788649	     -0.28283847	     -2.55661320	      0.00640773	     -0.23721486	     -2.37399797	      0.00394290	     -0.18019116	     -2.19138274	      0.04928900	     -1.31591893	    -16.25041788	      0.00000000	      0.00000000	     -0.00000000	      0.00000000	      0.00000000	    -16.82644125	    -10.61714507	      6.60032196	     30.58350205	     36.59784389	      0.00000000	      5.00000014	      5.00461671	    -14.39604187	      3.98624831	     32.11398400	     40.55266390	      0.00000000	      5.00000014
     16.30000000	      2.71675499	     -0.26614362	    192.22157261	     -2.00051029	      0.86520912	      0.82065200	     26.85457068	    -15.20340002	    -28.69711825	     35.27890312	      0.61573302	      7.00653640	      7.84328812	      0.00000000	     -0.34152698	      0.52909578	    -11.68841586	     13.15196513	      0.22954509	     20.66864887	     16.72109685	      0.00000000	      0.00374722	     -0.23312357	     -3.00278466	      0.00695896	     -0.31005434	     -3.19045870	      0.00615630	     -0.56681664	     -3.19045870	      0.00428270	     -0.56681664	     -2.62743658	      0.00347967	     -0.47538557	     -2.43976254	      0.00214116	     -0.36110840	     -2.25208850	      0.02676600	     -2.63714039	    -16.70058746	      0.00000000	      0.00000000	     -0.00000000	      0.00000000	      0.00000000	    -18.37654208	     -9.38623511	      3.27778536	     30.98831849	     35.68843874	      0.00000000	      5.00000014	      7.74232728	    -17.19231811	     10.64913505	     33.56627380	     41.77322269	      0.00000000	      5.00000014
     16.33333333	      3.44842522	     -0.99946308	    192.22540068	     -2.02857558	      0.86171639	      0.81829088	     26.36854773	    -13.90805626	    -31.82645469	     25.88612314	      0.45179808	      3.12738589	     14.83563734	      0.00000000	     -1.33247975	      0.68035699	    -12.30183722	     14.19478349	      0.24774571	     22.62855061	     16.73245927	      0.00000000	      0.00206109	     -0.29447589	     -3.08236000	      0.00382765	     -0.39165293	     -3.27500750	      0.00338617	     -0.71598868	     -3.27500750	      0.00235562	     -0.71598868	     -2.69706500	      0.00191393	     -0.60049524	     -2.50441750	      0.00117771	     -0.45614315	     -2.31177000	      0.01472217	     -3.33117017	    -17.14316162	      0.00000000	      0.00000000	     -0.00000000	      0.00000000	      0.00000000	    -19.24348437	     -8.80177014	      2.37470874	     31.12213254	     35.30819167	      0.00000000	      5.00000014	      8.71893429	    -18.98758292	     10.97550802	     36.58718424	     41.45201597	      0.00000000	      5.00000014
     16.36666667	      4.05793831	     -1.78002544	    191.96882273	     -2.05717266	      0.85760342	      0.81441385	     25.89022066	    -11.76345084	    -31.33565191	     17.52865319	      0.30593271	     -0.65266744	     17.62907700	      0.00000000	     -2.13348149	      0.71139352	    -12.84468285	     16.10363221	      0.28106140	     24.30726239	     15.75650961	      0.00000000	      0.00379302	     -0.36056729	     -3.16612920	      0.00704401	     -0.47955449	     -3.36401228	      0.00623155	     -0.87668330	     -3.36401228	      0.00433504	     -0.87668330	     -2.77036305	      0.00352219	     -0.73526881	     -2.57247998	      0.00216733	     -0.55851873	     -2.37459690	      0.02709313	     -4.07880927	    -17.60906079	      0.00000000	      0.00000000	     -0.00000000	      0.00000000	      0.00000000	    -19.82560865	     -8.31621661	      2.27867932	     31.34926021	     35.24991167	      0.00000000	      5.00000014	      8.57925432	    -21.22853540	     10.61141872	     40.41332745	     41.25132069	      0.00000000	      5.00000014
